<?xml version="1.0" encoding="utf-8"?>
<!-- Generator: Adobe Illustrator 23.0.4, SVG Export Plug-In . SVG Version: 6.00 Build 0)  -->
<svg version="1.1" id="Layer_1" xmlns="http://www.w3.org/2000/svg" xmlns:xlink="http://www.w3.org/1999/xlink" x="0px" y="0px"
	 width="181.47px" height="173.4px" viewBox="0 0 181.47 173.4" style="enable-background:new 0 0 181.47 173.4;"
	 xml:space="preserve">
<style type="text/css">
	.st0{fill-rule:evenodd;clip-rule:evenodd;}
</style>
<g>
	<polygon class="st0" points="20.83,141.71 13.73,141.71 13.73,144.52 20.25,144.52 20.25,146.9 13.73,146.9 13.73,150.35 
		21.14,150.35 21.14,152.72 10.99,152.72 10.99,139.35 20.83,139.35 20.83,141.71 	"/>
	<path class="st0" d="M29.8,149.09l1.34,1.26c-0.5,0.27-1.05,0.36-1.51,0.36c-1.51,0-3.64-0.93-3.64-4.67
		c0-3.74,2.13-4.67,3.64-4.67c1.51,0,3.63,0.93,3.63,4.67c0,1.25-0.24,2.18-0.61,2.87l-1.42-1.32L29.8,149.09L29.8,149.09z
		 M36.12,152.18l-1.46-1.37c0.82-1.04,1.4-2.57,1.4-4.77c0-6.28-4.66-7.04-6.43-7.04c-1.77,0-6.43,0.76-6.43,7.04
		c0,6.28,4.66,7.04,6.43,7.04c0.78,0,2.16-0.15,3.43-0.9l1.59,1.51L36.12,152.18L36.12,152.18z"/>
	<path class="st0" d="M49.22,148.05c0,3.51-2.13,5.03-5.5,5.03c-1.23,0-3.05-0.3-4.25-1.62c-0.73-0.81-1.01-1.91-1.04-3.24v-8.87
		h2.85v8.68c0,1.87,1.08,2.68,2.38,2.68c1.92,0,2.7-0.93,2.7-2.55v-8.81h2.86V148.05L49.22,148.05z"/>
	<path class="st0" d="M56.7,142.37h0.04l1.66,5.29h-3.41L56.7,142.37L56.7,142.37z M54.24,149.96h4.94l0.86,2.76h3.04l-4.71-13.38
		h-3.23l-4.77,13.38h2.94L54.24,149.96L54.24,149.96z"/>
	<polygon class="st0" points="68.05,150.3 74.7,150.3 74.7,152.72 65.25,152.72 65.25,139.35 68.05,139.35 68.05,150.3 	"/>
	<polygon class="st0" points="85.29,146.72 85.29,152.72 82.5,152.72 82.5,139.35 85.29,139.35 85.29,144.41 90.51,144.41 
		90.51,139.35 93.3,139.35 93.3,152.72 90.51,152.72 90.51,146.72 85.29,146.72 	"/>
	<path class="st0" d="M98.63,146.03c0-3.74,2.13-4.67,3.63-4.67c1.51,0,3.64,0.93,3.64,4.67c0,3.74-2.13,4.67-3.64,4.67
		C100.76,150.71,98.63,149.78,98.63,146.03L98.63,146.03z M95.84,146.03c0,6.28,4.66,7.04,6.42,7.04c1.78,0,6.43-0.76,6.43-7.04
		c0-6.28-4.66-7.04-6.43-7.04C100.5,138.99,95.84,139.76,95.84,146.03L95.84,146.03z"/>
	<path class="st0" d="M122.03,148.05c0,3.51-2.13,5.03-5.5,5.03c-1.23,0-3.05-0.3-4.25-1.62c-0.73-0.81-1.01-1.91-1.04-3.24v-8.87
		h2.85v8.68c0,1.87,1.08,2.68,2.39,2.68c1.92,0,2.7-0.93,2.7-2.55v-8.81h2.85V148.05L122.03,148.05z"/>
	<path class="st0" d="M127.14,148.6c0.02,0.74,0.4,2.16,2.84,2.16c1.32,0,2.8-0.32,2.8-1.74c0-1.04-1.01-1.32-2.42-1.65l-1.44-0.34
		c-2.17-0.5-4.25-0.98-4.25-3.92c0-1.49,0.81-4.12,5.14-4.12c4.1,0,5.2,2.68,5.22,4.32h-2.69c-0.07-0.59-0.3-2.01-2.74-2.01
		c-1.06,0-2.33,0.39-2.33,1.6c0,1.05,0.86,1.26,1.41,1.39l3.26,0.8c1.83,0.45,3.5,1.2,3.5,3.6c0,4.03-4.1,4.38-5.27,4.38
		c-4.88,0-5.72-2.81-5.72-4.47H127.14L127.14,148.6z"/>
	<polygon class="st0" points="140.54,152.72 137.76,152.72 137.76,139.35 140.54,139.35 140.54,152.72 	"/>
	<polygon class="st0" points="151.71,139.35 154.31,139.35 154.31,152.72 151.52,152.72 146.06,143.18 146.02,143.18 146.02,152.72 
		143.41,152.72 143.41,139.35 146.36,139.35 151.66,148.66 151.71,148.66 151.71,139.35 	"/>
	<path class="st0" d="M163.66,145.51h5.58v7.21h-1.86l-0.28-1.67c-0.71,0.81-1.73,2.02-4.17,2.02c-3.22,0-6.14-2.31-6.14-7
		c0-3.65,2.03-7.1,6.53-7.08c4.11,0,5.73,2.66,5.87,4.51h-2.79c0-0.52-0.95-2.2-2.92-2.2c-2,0-3.84,1.38-3.84,4.8
		c0,3.65,1.99,4.6,3.89,4.6c0.61,0,2.67-0.24,3.24-2.94h-3.11V145.51L163.66,145.51z"/>
	<path class="st0" d="M13.19,166.36c0-3.74,2.12-4.68,3.63-4.68c1.51,0,3.63,0.93,3.63,4.68c0,3.74-2.12,4.68-3.63,4.68
		C15.31,171.03,13.19,170.1,13.19,166.36L13.19,166.36z M10.4,166.36c0,6.28,4.66,7.05,6.43,7.05c1.77,0,6.43-0.77,6.43-7.05
		c0-6.28-4.66-7.04-6.43-7.04C15.05,159.32,10.4,160.08,10.4,166.36L10.4,166.36z"/>
	<path class="st0" d="M30.9,165.91v-3.93h2.22c1.73,0,2.46,0.55,2.46,1.85c0,0.6,0,2.08-2.09,2.08H30.9L30.9,165.91z M30.9,168.22
		h3.2c3.6,0,4.26-3.06,4.26-4.27c0-2.62-1.56-4.28-4.15-4.28h-6.11v13.38h2.79V168.22L30.9,168.22z"/>
	<path class="st0" d="M45.95,165.91v-3.93h2.21c1.73,0,2.46,0.55,2.46,1.85c0,0.6,0,2.08-2.08,2.08H45.95L45.95,165.91z
		 M45.95,168.22h3.2c3.59,0,4.27-3.06,4.27-4.27c0-2.62-1.56-4.28-4.15-4.28h-6.11v13.38h2.8V168.22L45.95,168.22z"/>
	<path class="st0" d="M60.41,166.36c0-3.74,2.12-4.68,3.63-4.68c1.5,0,3.63,0.93,3.63,4.68c0,3.74-2.13,4.68-3.63,4.68
		C62.53,171.03,60.41,170.1,60.41,166.36L60.41,166.36z M57.62,166.36c0,6.28,4.65,7.05,6.43,7.05c1.77,0,6.42-0.77,6.42-7.05
		c0-6.28-4.66-7.04-6.42-7.04C62.27,159.32,57.62,160.08,57.62,166.36L57.62,166.36z"/>
	<path class="st0" d="M78.07,165.55v-3.58h3.48c1.64,0,1.95,1.05,1.95,1.76c0,1.32-0.7,1.83-2.16,1.83H78.07L78.07,165.55z
		 M75.33,173.05h2.75v-5.24h2.88c2.07,0,2.18,0.71,2.18,2.53c0,1.38,0.11,2.06,0.29,2.7h3.09v-0.36c-0.6-0.22-0.6-0.71-0.6-2.66
		c0-2.5-0.6-2.91-1.69-3.4c1.32-0.44,2.06-1.71,2.06-3.18c0-1.16-0.65-3.78-4.21-3.78h-6.77V173.05L75.33,173.05z"/>
	<polygon class="st0" points="96.71,173.05 93.92,173.05 93.92,162.03 89.88,162.03 89.88,159.67 100.76,159.67 100.76,162.03 
		96.71,162.03 96.71,173.05 	"/>
	<path class="st0" d="M115.75,168.36c0,3.52-2.12,5.04-5.5,5.04c-1.22,0-3.05-0.31-4.24-1.63c-0.73-0.81-1.01-1.9-1.04-3.24v-8.87
		h2.85v8.68c0,1.86,1.08,2.69,2.39,2.69c1.92,0,2.7-0.94,2.7-2.56v-8.81h2.85V168.36L115.75,168.36z"/>
	<polygon class="st0" points="129.27,159.67 131.88,159.67 131.88,173.05 129.08,173.05 123.63,163.5 123.6,163.5 123.6,173.05 
		120.98,173.05 120.98,159.67 123.92,159.67 129.24,168.98 129.27,168.98 129.27,159.67 	"/>
	<polygon class="st0" points="139.77,173.05 136.96,173.05 136.96,159.67 139.77,159.67 139.77,173.05 	"/>
	<polygon class="st0" points="150.68,173.05 147.88,173.05 147.88,162.03 143.85,162.03 143.85,159.67 154.72,159.67 154.72,162.03 
		150.68,162.03 150.68,173.05 	"/>
	<polygon class="st0" points="165.28,173.05 162.48,173.05 162.48,168 157.87,159.67 161.16,159.67 163.94,165.48 166.59,159.67 
		169.75,159.67 165.28,168.03 165.28,173.05 	"/>
	<path class="st0" d="M90.06,0L0,44.36v20.84h10.08v62.5h159.28v-62.5h12.1V44.36L90.06,0L90.06,0z M149.88,108.87H29.57V51.75
		l60.49-30.91l59.82,30.91V108.87L149.88,108.87z"/>
	<polygon class="st0" points="117.61,71.91 61.83,71.91 61.83,51.75 117.61,51.75 117.61,71.91 	"/>
	<polygon class="st0" points="117.61,100.82 61.83,100.82 61.83,80.65 117.61,80.65 117.61,100.82 	"/>
</g>
</svg>
