<?xml version="1.0" encoding="utf-8"?>
<!-- Generator: Adobe Illustrator 16.0.4, SVG Export Plug-In . SVG Version: 6.00 Build 0)  -->
<!DOCTYPE svg PUBLIC "-//W3C//DTD SVG 1.1//EN" "http://www.w3.org/Graphics/SVG/1.1/DTD/svg11.dtd">
<svg version="1.1" id="Layer_1" xmlns="http://www.w3.org/2000/svg" xmlns:xlink="http://www.w3.org/1999/xlink" x="0px" y="0px"
	 width="738.162px" height="124.167px" viewBox="0 0 738.162 124.167" enable-background="new 0 0 738.162 124.167"
	 xml:space="preserve">
<g>
	<path fill-rule="evenodd" clip-rule="evenodd" fill="#55B449" d="M0,22.801c0-0.08,0-0.16,0-0.24
		c8.933-5.897,19.054-11.896,29.04-17.76c2.856-1.678,6.886-4.756,10.8-4.8c5.462-0.061,10.871,3.682,15.36,5.76
		c12.566,5.819,22.934,10.335,35.039,16.56c2.101,1.08,6.059,2.734,5.521,5.04c-0.867,3.717-7.797,1.049-10.56-0.24
		c-7.602-3.547-12.419-6.222-19.681-9.6c-2.66-1.238-7.5-4.384-10.56-4.32c-2.892,0.061-6.85,2.838-9.36,4.08
		c-6.612,3.27-11.5,6.259-17.52,9.84c-2.795,1.662-6.065,4.019-9.601,4.08C11.577,31.32,5.525,24.523,0,22.801z"/>
	<path fill-rule="evenodd" clip-rule="evenodd" fill="#005696" d="M54,20.881c7.682-1.756,6.479,9.705,0,8.4
		C50.479,28.572,49.345,21.945,54,20.881z"/>
	<path fill-rule="evenodd" clip-rule="evenodd" fill="#005696" d="M229.199,23.041c2.08-0.302,3.75,0.069,5.04,0.96
		c3.65,2.521,3.308,10.905-2.4,12c-4.096,0.786-9.418-1.6-8.16-8.16C224.085,25.728,226.033,23.5,229.199,23.041z"/>
	<path fill-rule="evenodd" clip-rule="evenodd" fill="#005696" d="M362.158,23.761c0,2.48,0,4.96,0,7.44
		c-5.386-2.423-8.837,2.6-6.72,7.68c1.84,0,3.68,0,5.521,0c0,2.4,0,4.8,0,7.2c-1.761,0-3.521,0-5.28,0
		c-0.416,9.376-0.525,20.525,0.48,29.28c-4.4,0-8.801,0-13.2,0c1.281-8.639,0.508-19.332,0.72-29.04
		c-0.841-0.679-3.227,0.187-4.08-0.48c0-2.24,0-4.48,0-6.72c0.936-0.505,2.76-0.121,4.08-0.24
		C342.14,26.503,351.228,21.314,362.158,23.761z"/>
	<path fill-rule="evenodd" clip-rule="evenodd" fill="#005696" d="M124.319,23.281c-0.43,6.53-0.171,13.749-0.24,20.64
		c3.521,0,7.04,0,10.561,0c0.516-6.437,0.233-14.153,0-20.64c4.56,0,9.12,0,13.68,0c-0.929,16.794-0.948,35.29,0,52.08
		c-4.56,0-9.12,0-13.68,0c0.434-7.246,0.169-15.191,0.24-22.8c-3.521,0-7.04,0-10.561,0c-0.476,7.116-0.293,15.652,0,22.8
		c-4.64,0-9.279,0-13.92,0c1.472-15.995,0.5-36.083,0.48-52.08C115.359,23.281,119.84,23.281,124.319,23.281z"/>
	<path fill-rule="evenodd" clip-rule="evenodd" fill="#005696" d="M198.959,23.281c0,5.36,0,10.72,0,16.08
		c5.726-3.126,14.23-1.211,17.521,3.84c7.254,11.139,1.639,33.301-12.96,33.12c-4.043-0.05-6.302-1.519-9.12-3.601
		c-1.933,0.708-2.748,2.533-4.561,3.36c-1.037-0.802-2.313-1.366-3.359-2.159c1.437-15.629,0.603-35.34,0.24-50.641
		C190.8,23.281,194.879,23.281,198.959,23.281z M198.959,58.081c0,5.088-0.5,10.142,2.16,10.8c8.516,2.109,8.206-25.665-0.24-22.799
		C197.993,47.06,198.959,53.212,198.959,58.081z"/>
	<path fill-rule="evenodd" clip-rule="evenodd" fill="#005696" d="M651.838,23.521c4.132-0.827,7.023,1.857,7.68,4.08
		c2.655,8.993-10.252,12.009-12.479,4.32C645.665,27.184,648.252,24.239,651.838,23.521z"/>
	<path fill-rule="evenodd" clip-rule="evenodd" fill="#005696" d="M454.798,23.761c-0.754,6.125-0.398,13.362-0.479,20.16
		c3.041,0.559,7.119,0.081,10.56,0.24c0.479-6.318,0.29-14.049,0-20.4c4.561,0,9.12,0,13.681,0c-1.06,16.229-1.064,35.372,0,51.6
		c-4.561,0-9.12,0-13.681,0c0.466-7.135,0.148-15.052,0.24-22.56c-3.52,0-7.04,0-10.56,0c-0.431,6.99-0.437,15.636,0.239,22.32
		c-4.16,0.56-9.359,0.08-13.92,0.24c1.132-15.91,1.132-35.69,0-51.6C445.519,23.761,450.158,23.761,454.798,23.761z"/>
	<path fill-rule="evenodd" clip-rule="evenodd" fill="#005696" d="M72.239,24.961c0.52,5.2-4.793,6.536-6.72,10.08
		c3.464,5.532,11.455,7.005,20.4,5.04c1.927-0.423,8.051-2.54,8.64,0.72c0.581,3.212-3.7,3.945-6,4.8
		c-2.676,0.995-5.672,2.416-6.479,4.08c-1.647,3.391-1.346,9.158-1.681,13.2c-0.394,4.755-0.547,8.888-1.92,12.96
		c-1.398,0.35-3.641,0.35-5.04,0c-4.612-10.987-2.374-28.827-11.04-35.76c-2.333,11.267-1.985,25.213-5.04,35.76
		c-1.325,0.423-3.69,0.301-5.04,0c-2.749-10.611-2.65-24.07-4.8-35.28c-8.273,6.125-6.227,24.653-10.8,35.28
		c-1.398,0.35-3.641,0.35-5.04,0c-1.357-4.146-1.513-8.447-1.92-13.201c-0.354-4.142-0.125-9.985-1.92-13.2
		c-0.92-1.648-3.681-2.834-6.479-3.84c-2.314-0.832-5.979-2.087-5.761-4.56c0.28-3.172,6.208-1.757,8.641-1.2
		c8.817,2.017,15.881,1.07,20.399-4.32c-2.185-3.655-6.508-5.172-7.68-9.84c3.461-2.958,6.66,1.156,9.12,2.88
		c2.634,1.846,5.519,4.052,10.08,3.6c5.614-0.556,8.647-5.838,13.199-7.68C70.168,24.154,71.48,23.972,72.239,24.961z"/>
	<path fill-rule="evenodd" clip-rule="evenodd" fill="#005696" d="M244.56,27.841c3.68-0.56,8.399-0.081,12.479-0.24
		c-0.382,3.378-0.204,7.316-0.24,11.04c1.84,0,3.681,0,5.521,0c-0.146,2.334,0.3,5.26-0.24,7.2c-1.68,0-3.36,0-5.04,0
		c1.155,5.466-4.432,25.061,5.28,22.799c0,2.16,0,4.32,0,6.48c-2.586,0.705-4.725,1.314-7.681,1.2
		c-13.017-0.505-9.371-16.684-9.84-30.24c-0.885-0.555-2.796-0.084-4.08-0.24c0-2.4,0-4.8,0-7.2c1.36,0,2.721,0,4.08,0
		C244.64,35.12,245.118,30.961,244.56,27.841z"/>
	<path fill-rule="evenodd" clip-rule="evenodd" fill="#005696" d="M316.319,27.601c-0.048,3.712-0.389,7.131-0.24,11.04
		c1.84,0,3.68,0,5.52,0c-0.146,2.334,0.301,5.26-0.24,7.2c-1.68,0-3.359,0-5.039,0c1.111,6.175-4.386,24.686,5.279,22.799
		c0,2.16,0,4.32,0,6.48c-6.352,2.086-13.327,1.534-16.08-3.359c-3.433-6.104,0.077-16.994-1.199-25.68
		c-0.918-0.683-3.392,0.191-4.32-0.48c0-2.32,0-4.64,0-6.96c1.439,0,2.88,0,4.32,0c0.023-3.784-0.414-7.106-0.24-11.04
		C308.159,27.601,312.239,27.601,316.319,27.601z"/>
	<path fill-rule="evenodd" clip-rule="evenodd" fill="#005696" d="M679.917,27.841c-0.256,3.504-0.281,7.238-0.239,11.04
		c1.76,0,3.52,0,5.28,0c0.395,1.873,0.395,5.328,0,7.2c-1.681,0-3.36,0-5.041,0c1.174,5.101-4.449,24.875,5.28,22.559
		c0,2.16,0,4.32,0,6.48c-3.876,1.547-9.932,1.598-12.72,0c-7.504-4.3-3.57-18.119-4.561-28.8c-0.917-0.683-3.391,0.191-4.319-0.48
		c0-2.24,0-4.48,0-6.72c1.01-0.51,2.923-0.117,4.319-0.24c0.163-3.923-0.229-7.291-0.239-11.04
		C671.758,27.841,675.837,27.841,679.917,27.841z"/>
	<path fill-rule="evenodd" clip-rule="evenodd" fill="#005696" d="M34.08,29.521c5.865-0.286,5.455,8.757,0,8.64
		C29.251,38.057,27.899,29.822,34.08,29.521z"/>
	<path fill-rule="evenodd" clip-rule="evenodd" fill="#005696" d="M75.84,29.521c5.605-0.377,5.779,8.32,0.479,8.64
		C71.434,38.456,69.488,29.948,75.84,29.521z"/>
	<path fill-rule="evenodd" clip-rule="evenodd" fill="#005696" d="M729.598,31.201c4.997-0.991,9.489,2.479,8.399,8.16
		c-1.635,8.522-16.643,5.865-13.439-4.08C725.05,33.752,726.402,31.834,729.598,31.201z M735.117,42.001
		c2.212-2.166,1.743-7.545-0.72-9.12c-0.858-0.548-2.307-0.769-3.36-0.72C720.368,32.652,727.888,49.077,735.117,42.001z"/>
	<path fill-rule="evenodd" clip-rule="evenodd" fill="#005696" d="M732.478,38.161c0.538,1.302,1.38,2.3,2.16,3.36
		c-2.808,1.125-1.893-3.546-4.561-3.36c-0.772,0.667,0.411,3.292-0.72,3.6c-2.075-0.885-0.438-5.481-0.96-7.92
		C732.438,31.752,737.068,36.565,732.478,38.161z M729.837,37.201c1.107-0.013,2.347,0.106,3.12-0.24
		c0.276-0.672,0.276-1.248,0-1.92c-0.773-0.347-2.013-0.227-3.12-0.24C729.837,35.601,729.837,36.401,729.837,37.201z"/>
	<path fill-rule="evenodd" clip-rule="evenodd" fill="#005696" d="M183.839,75.361c-3.76,0-7.52,0-11.279,0
		c-0.886-0.314-1.141-1.26-1.44-2.16c-8.314,5.928-20.567,1.538-19.92-9.12c0.592-9.731,10.199-11.779,18.24-14.64
		c-0.74-7.855-11.606-3.52-14.88-0.96c0-3.36,0-6.72,0-10.08c8.864-1.185,18.313-1.001,23.279,3.36
		C185.358,48.365,179.509,65.419,183.839,75.361z M169.68,56.641c-4.236,0.236-8.933,7.656-5.28,11.041
		c1.502,1.391,4.668,0.684,6-0.48c-0.312-3.367,0.63-7.99-0.48-10.56C169.839,56.641,169.76,56.641,169.68,56.641z"/>
	<path fill-rule="evenodd" clip-rule="evenodd" fill="#005696" d="M298.319,75.121c-3.281,0.56-7.6,0.08-11.28,0.24
		c-1.06-0.221-1.149-1.41-1.681-2.16c-7.072,5.633-18.564,2.105-19.68-6.48c-1.451-11.169,9.795-14.774,18.24-17.279
		c-0.793-7.719-11.609-3.65-14.88-0.96c0-3.36,0-6.72,0-10.08c10.569-1.364,21.687-0.938,25.68,6.48
		C298.812,52.486,294.079,66.99,298.319,75.121z M284.159,56.641c-4.552-0.048-9.524,8.472-5.04,11.281
		c1.567,0.98,4.61,0.531,5.76-0.961c-0.312-3.288,0.63-7.829-0.479-10.32C284.319,56.641,284.239,56.641,284.159,56.641z"/>
	<path fill-rule="evenodd" clip-rule="evenodd" fill="#005696" d="M375.599,38.401c25.249-3.874,26.249,38.315,2.64,37.92
		c-10.185-0.171-16.78-8.612-16.8-18.96C361.42,47.007,367.009,39.719,375.599,38.401z M378.479,68.88
		c5.852,0.033,5.53-25.141-0.72-23.279C373.063,46.999,373.176,68.851,378.479,68.88z"/>
	<path fill-rule="evenodd" clip-rule="evenodd" fill="#005696" d="M422.398,38.161c0,3.28,0,6.56,0,9.84
		c-13.435-1.96-9.728,16.762-9.36,27.36c-4.479,0-8.96,0-13.439,0c0.63-11.32,1.118-25.872-0.48-36.48c3.84,0,7.681,0,11.521,0
		c0.437,1.323,0.804,2.716,0.96,4.32C414.243,41.525,416.37,37.253,422.398,38.161z"/>
	<path fill-rule="evenodd" clip-rule="evenodd" fill="#005696" d="M551.038,42.481c3.817-4.687,14.344-6.27,18-0.96
		c5.299,7.697-0.396,23.863,2.64,33.84c-4.399,0-8.8,0-13.2,0c0.752-3.908,0.721-8.527,0.721-14.88c0-4.493,1.043-13.303-1.92-14.16
		c-1.92-0.555-3.807,0.879-4.32,1.92c-1.096,2.219-0.48,6.993-0.48,11.52c0,6.133,0.084,10.821,0.721,15.6c-4.4,0-8.801,0-13.2,0
		c0.784-4.051,0.72-9.318,0.72-14.4c0.001-5.096,0.639-10.423-0.96-14.16c-6.756-2.302-5.761,5.07-5.76,13.2
		c0,5.989,0.081,10.815,0.72,15.36c-4.399,0-8.8,0-13.199,0c1.293-10.869,0.774-26.002,0.239-36.48c3.521,0,7.04,0,10.561,0
		c0.415,0.945,0.928,1.792,0.96,3.12C536.951,37.534,548.262,36.498,551.038,42.481z"/>
	<path fill-rule="evenodd" clip-rule="evenodd" fill="#005696" d="M608.157,75.121c-3.28,0.56-7.599,0.08-11.279,0.24
		c-1.02-0.182-1.07-1.33-1.44-2.16c-6.836,5.929-18.604,1.564-19.68-6.24c-1.625-11.801,9.97-14.595,18-17.28
		c-0.648-7.745-11.53-3.658-14.64-0.96c0-3.36,0-6.72,0-10.08c10.657-1.166,20.973-0.789,25.199,6
		C608.882,51.971,603.797,66.945,608.157,75.121z M594.478,56.641c-4.501-0.024-9.909,8.021-5.52,11.281
		c1.6,1.188,4.324,0.713,5.76-0.721C594.559,63.76,595.037,59.682,594.478,56.641z"/>
	<path fill-rule="evenodd" clip-rule="evenodd" fill="#005696" d="M642.478,75.361c-4.32,0-8.64,0-12.96,0
		c0.652-4.856,0.479-11.377,0.479-17.52c0.001-4.164,0.923-8.977-1.68-11.04c-2.862-0.382-4.187,0.773-5.04,2.4
		c0.161,8.8-0.474,18.395,0.721,26.16c-4.4,0-8.8,0-13.2,0c1.101-11.045,1.086-25.433,0-36.48c4.009,0.792,11.774-2.174,11.52,2.88
		c2.145-0.822,4.035-3.17,7.2-3.6C647.491,35.72,640.247,60.788,642.478,75.361z"/>
	<path fill-rule="evenodd" clip-rule="evenodd" fill="#005696" d="M236.399,38.641c-0.279,11.733-0.746,25.694,0.479,36.72
		c-4.399,0-8.8,0-13.2,0c0.938-11.277,0.423-25.836,0.24-36.72C228.079,38.641,232.239,38.641,236.399,38.641z"/>
	<path fill-rule="evenodd" clip-rule="evenodd" fill="#005696" d="M497.038,38.881c0.438,4.637,0.24,9.838,0.24,15.6
		c0,4.213-1.43,12.544,2.399,13.2c5.951,1.018,4.32-8.496,4.32-14.64c0-5.846-0.12-10.404-0.72-14.16c4.399,0,8.8,0,13.199,0
		c-1.103,10.997-1.106,25.484,0,36.48c-3.439,0-6.879,0-10.319,0c-1.105-0.334-0.82-2.061-1.44-2.88
		c-2.575,2.831-9.4,5.101-13.92,2.88c-9.536-4.688-3.662-23.738-6-35.76c0-0.24,0-0.48,0-0.72
		C488.878,38.881,492.958,38.881,497.038,38.881z"/>
	<path fill-rule="evenodd" clip-rule="evenodd" fill="#005696" d="M659.277,38.881c0.212,12.108-0.487,25.128,0.48,36.48
		c-4.32,0-8.641,0-12.96,0c0.934-11.218,0.417-25.656,0.24-36.48C651.117,38.881,655.197,38.881,659.277,38.881z"/>
	<path fill-rule="evenodd" clip-rule="evenodd" fill="#005696" d="M701.037,38.881c1.284,7.275,3.26,13.861,5.04,20.64
		c2.026-6.294,3.268-13.373,4.32-20.64c3.439,0,6.88,0,10.32,0c-1.644,7.783-4.071,16.389-6.721,24.72
		c-4.047,12.725-7.233,27.395-24.96,25.2c0-3.119,0-6.24,0-9.359c4.968,2.769,10.161-0.544,10.32-4.561
		c0.102-2.554-1.89-6.002-2.88-8.64c-3.097-8.242-6.092-18.006-7.92-26.64c0-0.24,0-0.48,0-0.72
		C692.718,38.881,696.878,38.881,701.037,38.881z"/>
	<path fill-rule="evenodd" clip-rule="evenodd" fill="#55B449" d="M10.8,46.561c4.626,2.245,10.099,2.632,12.48,6.96
		c2.869,5.214,1.054,13.014,2.399,20.4c-3.79-2.178-7.473-5.468-11.279-8.641c-1.173-0.977-2.996-2.183-3.36-3.12
		C9.39,57.918,11.759,52.206,10.8,46.561z"/>
	<path fill-rule="evenodd" clip-rule="evenodd" fill="#55B449" d="M153.6,93.121c14.273-2.803,13.829,28.564-0.48,24.96
		C144.046,115.795,143.546,95.095,153.6,93.121z M155.039,115.441c6.651,0.186,6.176-21.168-0.72-19.44
		C149.101,97.308,149.269,115.28,155.039,115.441z"/>
	<path fill-rule="evenodd" clip-rule="evenodd" fill="#55B449" d="M137.039,93.121c0,0.96,0,1.92,0,2.88
		c-2.694-1.005-3.174,2.041-3.119,4.56c0.579,0.461,1.928,0.152,2.88,0.24c0,0.801,0,1.601,0,2.4c-0.88,0-1.761,0-2.641,0
		c-0.741,4.671,0.248,9.664,0,14.64c-1.359,0-2.72,0-4.08,0c0.446-4.435,0.161-9.599,0.24-14.399
		c-0.454-0.426-1.585-0.176-2.399-0.24c0-0.801,0-1.6,0-2.4c0.72,0,1.439,0,2.159,0C130.63,96.471,131.742,92.703,137.039,93.121z"
		/>
	<path fill-rule="evenodd" clip-rule="evenodd" fill="#55B449" d="M273.599,93.601c0,1.359,0,2.72,0,4.08
		c-1.054,0.271-2.172-1.445-3.6-1.681c-9.365-1.54-9.655,19.2-0.96,19.2c2.653,0,3.697-3.08,5.52-0.721
		c-1.53,2.494-3.779,4.215-7.68,3.841C253.264,117.014,256.49,87.96,273.599,93.601z"/>
	<path fill-rule="evenodd" clip-rule="evenodd" fill="#55B449" d="M181.919,93.361c1.28,0,2.561,0,3.84,0c0,4.56,0,9.119,0,13.68
		c2.657-1.424,3.096-7.145,8.4-6.72c0,1.12,0,2.239,0,3.36c-8.402,0.465,0.698,10.471,1.44,13.92
		c-1.044,0.556-3.117,0.082-4.561,0.239c-0.74-3.019-2.248-5.271-3.12-8.159c-2.418,1.021-2.285,4.594-2.16,8.159
		c-1.279,0-2.56,0-3.84,0C182.203,109.855,182.295,101.326,181.919,93.361z"/>
	<path fill-rule="evenodd" clip-rule="evenodd" fill="#55B449" d="M200.879,93.361c-0.422,7.626-0.368,16.846,0,24.479
		c-1.359,0-2.72,0-4.08,0c0.211-7.989,0.452-16.544,0-24.479C198.159,93.361,199.52,93.361,200.879,93.361z"/>
	<path fill-rule="evenodd" clip-rule="evenodd" fill="#55B449" d="M243.359,93.361c1.359,0,2.72,0,4.08,0
		c-0.325,7.625-0.595,17.219,0.239,24.479c-1.312-0.367-4.331,0.972-3.84-1.2c-1.511,0.518-1.958,1.483-3.359,1.681
		c-10.175,1.429-7.664-20.841,2.88-18C244.091,98.226,243.179,95.704,243.359,93.361z M243.359,114.241
		c0.383-3.149,0.408-7.895,0-11.04C235.992,100.872,236.127,118.977,243.359,114.241z"/>
	<path fill-rule="evenodd" clip-rule="evenodd" fill="#55B449" d="M324.239,95.281c1.279,0,2.56,0,3.84,0
		c-0.525,1.314-0.105,3.574-0.24,5.279c0.647,0.473,2.097,0.144,3.12,0.24c0,0.801,0,1.601,0,2.4c-0.96,0-1.92,0-2.88,0
		c-0.229,3.466-0.816,9.269,0.479,12c0.632,0.248,1.473,0.287,2.4,0.24c0,0.8,0,1.6,0,2.399c-8.453,3.275-6.695-7.444-6.72-14.159
		c-0.085-0.797-1.384-0.377-2.16-0.48c0-0.801,0-1.6,0-2.4c0.751-0.049,1.762,0.162,2.16-0.24
		C324.239,98.8,324.239,97.041,324.239,95.281z"/>
	<path fill-rule="evenodd" clip-rule="evenodd" fill="#55B449" d="M179.039,117.84c-1.669-0.091-4.034,0.515-4.08-1.2
		c-2.902,2.988-8.843,1.705-9.12-2.879c-0.288-4.783,5.164-6.957,8.881-7.92c-0.03-3.336-5.043-3.531-6.96-1.681
		c-0.433-0.841-0.354-3.227,0-4.08c5.153-0.101,9.651,0.428,10.56,4.319C179.303,108.615,177.492,113.565,179.039,117.84z
		 M174.239,108.72c-2.364,0.836-4.891,1.51-4.32,5.28c0.979,1.606,3.311,1.606,4.801,0.479
		C174.422,112.699,175.329,109.71,174.239,108.72z"/>
	<path fill-rule="evenodd" clip-rule="evenodd" fill="#55B449" d="M204.959,100.081c3.788-0.087,7.071,0.177,8.88,1.681
		c3.912,3.25,0.528,10.162,2.641,16.079c-1.521-0.239-4.266,0.746-4.08-1.2c-3.363,3.297-10.376,1.437-9.12-4.799
		c0.688-3.422,5.737-5.223,8.64-5.761c0.346-3.618-4.934-3.811-6.72-1.92C204.645,103.276,205.115,101.365,204.959,100.081z
		 M211.679,108.72c-6.52,0.076-4.945,9.859,0.48,5.521C211.897,112.502,212.718,109.681,211.679,108.72z"/>
	<path fill-rule="evenodd" clip-rule="evenodd" fill="#55B449" d="M118.319,100.56c11.426-2.826,11.417,19.855,0.24,17.761
		C111.446,116.988,111.2,102.322,118.319,100.56z M120,115.681c4.349-0.027,3.767-14.023-0.721-12.48
		C116.128,104.285,116.095,115.705,120,115.681z"/>
	<path fill-rule="evenodd" clip-rule="evenodd" fill="#55B449" d="M231.599,117.84c-1.279,0-2.56,0-3.84,0
		c-0.89-4.122,1.875-13.427-1.68-14.159c-4.805-0.992-2.485,9.831-2.64,13.92c-0.885,0.555-2.797,0.083-4.08,0.239
		c-0.085-5.675,0.214-11.733-0.24-17.04c1.321,0.278,4.019-0.818,3.6,1.2c1.856-1.427,6.148-2.866,7.921,0
		C232.862,105.596,230.445,113.078,231.599,117.84z"/>
	<path fill-rule="evenodd" clip-rule="evenodd" fill="#55B449" d="M280.559,100.56c11.436-2.732,11.382,19.76,0.24,17.761
		C273.656,117.039,273.274,102.302,280.559,100.56z M282.239,115.681c4.22-0.166,3.777-13.894-0.721-12.48
		C278.235,104.232,278.487,115.828,282.239,115.681z"/>
	<path fill-rule="evenodd" clip-rule="evenodd" fill="#55B449" d="M319.919,117.84c-1.36,0-2.72,0-4.08,0
		c-0.255-3.03,1.364-13.256-1.2-14.159c-5.186-1.828-3.107,10.057-3.12,14.159c-1.279,0-2.56,0-3.84,0
		c-0.054-5.786,0.228-11.907-0.479-17.04c1.04,0,2.079,0,3.12,0c0.728-0.008,0.598,0.842,0.72,1.44
		c1.495-1.776,4.82-2.593,6.72-1.44C321.661,103.169,318.525,113.082,319.919,117.84z"/>
	<path fill-rule="evenodd" clip-rule="evenodd" fill="#55B449" d="M291.599,101.041c0.885-0.555,2.797-0.084,4.08-0.24
		c0.623,3.854-1.876,13.531,1.68,14.16c4.872,0.861,2.414-9.995,2.641-14.16c1.359,0,2.72,0,4.08,0
		c-0.488,5.414-0.27,11.859,0.24,17.04c-1.04,0-2.08,0-3.12,0c-0.808,0.087-0.4-1.04-0.721-1.44
		c-1.618,1.053-3.142,2.496-5.52,1.921C290.038,117.13,292.661,106.447,291.599,101.041z"/>
	<path fill-rule="evenodd" clip-rule="evenodd" fill="#55B449" d="M331.438,100.8c1.44,0,2.88,0,4.32,0
		c0.611,4.189,1.852,7.748,3.12,11.28c1.439-3.2,2.003-7.276,2.64-11.28c1.12,0,2.24,0,3.36,0c-0.685,3.596-1.719,8.123-3.12,12.24
		c-1.848,5.428-3.409,11.96-10.32,11.04c0-1.12,0-2.24,0-3.36c0.562,0.479,1.527,0.553,2.641,0.48c4.905-2.539,1.896-6.439,0-11.52
		C332.8,106.252,332.029,103.222,331.438,100.8z"/>
</g>
</svg>
